<svg id="Layer_1" xmlns="http://www.w3.org/2000/svg" xmlns:xlink="http://www.w3.org/1999/xlink" x="0px" y="0px"
	 viewBox="0 0 364.9 192.3" style="enable-background:new 0 0 364.9 192.3;" xml:space="preserve">
<style type="text/css">
	.st0{fill:#444444;}
	.st1{fill:#E8E8E8;}
	.st2{fill:#FFFFFF;}
	.st3{fill:#3FB295;}
</style>
<path d="M7.1,10.4c15.8,0,31.6,0,47.4,0c1.7,21.6,3.4,43.3,5.1,64.9c0.1,0,0.2,0,0.2,0c1.7-21.6,3.5-43.2,5.2-64.9
	c15.9,0,31.7,0,47.6,0c0,46.6,0,93.2,0,139.9c-11.2,0-22.3,0-33.5,0c0-27.1,0-54.2,0-81.3c-0.1,0-0.1,0-0.2,0
	c-0.4,4-0.8,8.1-1.3,12.1c-0.9,9.1-1.9,18.1-2.8,27.2c-0.9,8.9-1.8,17.7-2.7,26.6c-0.5,4.9-1,9.7-1.5,14.6c-0.1,0.6-0.3,0.9-1,0.9
	c-9,0-18.1,0-27.1,0c-0.1,0-0.2,0-0.5-0.1c-2.8-27.4-5.6-54.8-8.3-82.2c-0.1,0-0.2,0-0.2,0c0,27.4,0,54.8,0,82.2
	c-8.8,0-17.6,0-26.4,0C7.1,103.7,7.1,57.1,7.1,10.4z"/>
<path class="st3" d="M273.7,59.7c-11.1,0-22,0-33.1,0c0-0.5,0-0.9,0-1.3c0-6.3,0-12.6,0-19c0-2.1-0.6-2.8-2.7-2.9
	c-3.7-0.2-4.4,0.4-4.4,4.1c0,4.7,0.1,9.4,0,14c0,2.5,1,4.2,3.1,5.5c5.2,3,10.3,6.1,15.4,9.2c4.1,2.5,8.3,4.8,12.2,7.6
	c5.7,4,8.6,9.7,9.4,16.6c0.3,2.8,0.4,5.7,0.4,8.5c0,8,0,15.9-0.2,23.9c-0.2,5.7-1.7,11.1-5.1,15.8c-3.8,5.2-9.2,7.9-15.3,9
	c-2.8,0.5-5.6,0.8-8.5,0.8c-6.2,0.1-12.4,0.1-18.6-0.1c-5.4-0.2-10.6-1.4-15.3-4.4c-5.8-3.7-8.8-9.2-10.1-15.7
	c-0.6-3.1-0.9-6.3-0.9-9.4c-0.1-7.2,0-14.4,0-21.6c0-0.4,0-0.9,0-1.4c11,0,22,0,33.1,0c0,0.4,0,0.8,0,1.2c0,7,0,14,0,21
	c0,2.3,0.6,2.9,2.9,2.9c4.2,0,4.4-0.1,4.4-4.4c0-5.2-0.1-10.5,0-15.7c0-2.5-0.9-4.1-3.1-5.4c-7.7-4.6-15.3-9.4-23.2-13.7
	c-9.1-5-13.9-12.5-14-22.9c-0.1-9.3-0.1-18.6,0.2-27.9c0.1-5.1,1.6-9.9,4.5-14.2c3.6-5.5,9-8.5,15.3-9.7c3.2-0.6,6.4-0.9,9.6-1
	c5.6-0.1,11.2-0.1,16.8,0c4.3,0.1,8.6,0.9,12.6,2.6c7.7,3.3,12,9.4,13.6,17.4c0.6,3.1,0.9,6.3,1,9.4c0.1,6.6,0,13.2,0,19.8
	C273.7,58.8,273.7,59.2,273.7,59.7z"/>
<path class="st3" d="M279.3,150.3c6.1-46.8,12.3-93.3,18.4-139.9c14.7,0,29.2,0,43.9,0c6.1,46.6,12.3,93.3,18.4,139.9
	c-11.2,0-22.3,0-33.4,0c-0.5-5.8-1.1-11.5-1.6-17.3c-4.9,0-9.8,0-14.7,0c-0.5,5.8-0.9,11.5-1.4,17.3
	C298.9,150.3,289.2,150.3,279.3,150.3z M322.3,104.5c-1.6-17.9-3.1-35.5-4.7-53.2c-0.1,0-0.1,0-0.2,0c-1.6,17.7-3.1,35.4-4.7,53.2
	C316,104.5,319.1,104.5,322.3,104.5z"/>
<path d="M160.4,51.6c2.3-13.7,4.6-27.4,6.8-41.2c10.2,0,20.4,0,30.7,0c-1.1,4.3-2.2,8.6-3.3,12.9c-6.3,25.1-12.7,50.2-19,75.3
	c-0.2,0.8-0.3,1.7-0.3,2.5c0,15.9,0,31.8,0,47.8c0,0.5,0,0.9,0,1.5c-11.4,0-22.6,0-34.1,0c0-0.5,0-0.9,0-1.4c0-13.6-0.1-27.3,0-40.9
	c0-4.2-0.5-8.2-1.5-12.2c-7-28-13.9-56-20.8-84.1c-0.1-0.4-0.2-0.9-0.3-1.4c11.7,0,23.4,0,35.2,0c2.1,13.8,4.2,27.5,6.3,41.2
	C160.3,51.6,160.3,51.6,160.4,51.6z"/>
<path class="st3" d="M361.5,159c0,7.6,0,15.1,0,22.7c-53.8,0-107.5,0-161.4,0c0-7.5,0-15,0-22.7C253.9,159,307.6,159,361.5,159z"/>
</svg>
